HIERARCHY
ROOT Hips
{
	OFFSET	0.00	0.00	0.00
	CHANNELS 6 Xposition Yposition Zposition Zrotation Xrotation Yrotation
	JOINT LeftUpLeg
	{
		OFFSET	 0.126116	-0.065224	 0.014019
		CHANNELS 3 Zrotation Xrotation Yrotation
		JOINT LeftLeg
		{
			OFFSET	 0.000000	 0.569914	 0.000000
			CHANNELS 3 Zrotation Xrotation Yrotation
			JOINT LeftFoot
			{
				OFFSET	 0.000000	 0.544423	 0.000000
				CHANNELS 3 Zrotation Xrotation Yrotation
				JOINT LeftToeBase
				{
					OFFSET	 0.000000	 0.207117	 0.000000
					CHANNELS 3 Zrotation Xrotation Yrotation
					End Site
					{
						OFFSET	 0.000000	 0.207117	 0.000000
					}
				}
			}
		}
	}
	JOINT RightUpLeg
	{
		OFFSET	-0.124023	-0.065224	 0.008373
		CHANNELS 3 Zrotation Xrotation Yrotation
		JOINT RightLeg
		{
			OFFSET	 0.000000	 0.570047	 0.000000
			CHANNELS 3 Zrotation Xrotation Yrotation
			JOINT RightFoot
			{
				OFFSET	 0.000000	 0.544354	 0.000000
				CHANNELS 3 Zrotation Xrotation Yrotation
				JOINT RightToeBase
				{
					OFFSET	 0.000000	 0.207540	 0.000000
					CHANNELS 3 Zrotation Xrotation Yrotation
					End Site
					{
						OFFSET	 0.000000	 0.207540	 0.000000
					}
				}
			}
		}
	}
	JOINT Spine
	{
		OFFSET	 0.000184	 0.117403	 0.007763
		CHANNELS 3 Zrotation Xrotation Yrotation
		JOINT Spine1
		{
			OFFSET	 0.000000	 0.137269	 0.000000
			CHANNELS 3 Zrotation Xrotation Yrotation
			JOINT Spine2
			{
				OFFSET	 0.000000	 0.156879	 0.000000
				CHANNELS 3 Zrotation Xrotation Yrotation
				JOINT LeftShoulder
				{
					OFFSET	 0.080501	 0.160143	 0.002496
					CHANNELS 3 Zrotation Xrotation Yrotation
					JOINT LeftArm
					{
						OFFSET	 0.000000	 0.164363	 0.000000
						CHANNELS 3 Zrotation Xrotation Yrotation
						JOINT LeftForeArm
						{
							OFFSET	 0.000000	 0.364576	 0.000000
							CHANNELS 3 Zrotation Xrotation Yrotation
							JOINT LeftHand
							{
								OFFSET	 0.000000	 0.360812	 0.000000
								CHANNELS 3 Zrotation Xrotation Yrotation
								JOINT LeftHandIndex1
								{
									OFFSET	 0.000000	 0.086006	 0.000000
									CHANNELS 3 Zrotation Xrotation Yrotation
									JOINT LeftHandIndex2
									{
										OFFSET	 0.000000	 0.047237	 0.000000
										CHANNELS 3 Zrotation Xrotation Yrotation
										JOINT LeftHandIndex3
										{
											OFFSET	-0.004284	 0.038165	 0.000551
											CHANNELS 3 Zrotation Xrotation Yrotation
											End Site
											{
												OFFSET	-0.004284	 0.038165	 0.000551
											}
										}
									}
								}
							}
						}
					}
				}
				JOINT Neck
				{
					OFFSET	 0.000000	 0.176489	 0.000000
					CHANNELS 3 Zrotation Xrotation Yrotation
					JOINT Head
					{
						OFFSET	 0.000000	 0.077941	 0.001747
						CHANNELS 3 Zrotation Xrotation Yrotation
						End Site
						{
							OFFSET	 0.000000	 0.077941	 0.001747
						}
					}
				}
				JOINT RightShoulder
				{
					OFFSET	-0.080363	 0.159706	-0.000306
					CHANNELS 3 Zrotation Xrotation Yrotation
					JOINT RightArm
					{
						OFFSET	 0.000000	 0.164196	 0.000000
						CHANNELS 3 Zrotation Xrotation Yrotation
						JOINT RightForeArm
						{
							OFFSET	 0.000000	 0.365611	 0.000000
							CHANNELS 3 Zrotation Xrotation Yrotation
							JOINT RightHand
							{
								OFFSET	 0.000000	 0.360648	 0.000000
								CHANNELS 3 Zrotation Xrotation Yrotation
								JOINT RightHandIndex1
								{
									OFFSET	 0.000000	 0.069977	 0.000000
									CHANNELS 3 Zrotation Xrotation Yrotation
									JOINT RightHandIndex2
									{
										OFFSET	 0.000000	 0.052305	 0.000000
										CHANNELS 3 Zrotation Xrotation Yrotation
										JOINT RightHandIndex3
										{
											OFFSET	 0.009002	 0.042196	 0.000782
											CHANNELS 3 Zrotation Xrotation Yrotation
											End Site
											{
												OFFSET	 0.009002	 0.042196	 0.000782
											}
										}
									}
								}
							}
						}
					}
				}
			}
		}
	}
}
MOTION
Frames:    4
Frame Time: 0.03333334
 0.001428	 1.271735	 0.064724	 0.220730	-0.775763	 179.972300	-176.764500	 2.307063	-10.275670	 2.354916	-10.976580	-0.031153	-5.204361	 70.210540	 4.537817	 1.292262	 28.425850	-2.713146	 177.153000	 2.571950	 10.293940	-2.298317	-11.037420	 0.044155	 5.347959	 70.096000	-4.755058	-1.288183	 28.361890	 2.710176	 0.045175	 1.855256	-2.029240	 0.287030	 3.874821	-1.029566	-0.341954	-5.038751	 3.072131	-101.478000	 1.740672	 90.353390	 1.511024	 60.371460	 0.776411	 7.646739	 4.403673	-7.412129	 9.895885	-2.262519	-8.004979	-6.580301	 5.266122	 0.000000	 0.000000	 0.000000	 0.000000	 0.000000	 0.000000	 0.000000	 0.089846	-3.783161	 0.005928	-0.007865	 1.193601	 0.755036	 101.796200	-0.213308	-89.955470	-108.196300	 4.076713	 63.675310	-8.341953	 4.773435	 3.143736	-2.212123	-13.043010	-68.478330	 15.208500	 5.323790	 0.000000	 0.000000	 0.000000	 0.000000	 0.000000	 0.000000	 0.000000
 0.001723	 1.271759	 0.064731	 0.128324	-0.775704	 179.973900	-176.843500	 2.185957	-10.281220	 2.300964	-10.731150	-0.041311	-5.179453	 70.081900	 4.531923	 1.292262	 28.425850	-2.713146	 177.071600	 2.672487	 10.288710	-2.341726	-11.240520	 0.035769	 5.365040	 70.202160	-4.757258	-1.288183	 28.361890	 2.710176	 0.058037	 1.847061	 0.504735	-0.270837	 3.907359	 0.299845	 0.175110	-5.078069	-0.766701	-101.478000	 1.740666	 90.353390	 1.521727	 61.017100	 0.878203	 7.732928	 4.402899	-7.548959	 12.292560	-0.815338	 0.570246	-6.580301	 5.266122	 0.000000	 0.000000	 0.000000	 0.000000	 0.000000	 0.000000	 0.000000	 0.089846	-3.783161	 0.005928	 0.001974	 1.213326	-0.186389	 101.796200	-0.213312	-89.955450	-91.021320	 10.261940	 63.241230	-28.543610	 29.672570	 12.519490	 14.813650	-32.694490	-58.668800	 15.208500	 5.323790	 0.000000	 0.000000	 0.000000	 0.000000	 0.000000	 0.000000	 0.000000
 0.002006	 1.271637	 0.064730	 0.005923	-0.766481	 179.979000	-176.955700	 2.094864	-10.286820	 2.264540	-10.565210	-0.048043	-5.182805	 69.994610	 4.549308	 1.292262	 28.425850	-2.713146	 176.966600	 2.815151	 10.283780	-2.407902	-11.549560	 0.022695	 5.393368	 70.364810	-4.763878	-1.288183	 28.361890	 2.710176	 0.037501	 1.884141	 2.945062	-0.824877	 3.839558	 1.575306	 0.682768	-4.974381	-4.462974	-101.478000	 1.740686	 90.353400	 1.775268	 61.749200	 0.749951	 7.780298	 4.402106	-7.624538	 14.048040	 0.765974	 8.851278	-6.580301	 5.266122	 0.000000	 0.000000	 0.000000	 0.000000	 0.000000	 0.000000	 0.000000	 0.089846	-3.783161	 0.005928	 0.011184	 1.171146	-1.094270	 101.796200	-0.213304	-89.955470	-77.478190	 17.713470	 60.601360	-48.167560	 43.372680	 26.632850	 28.220480	-47.627280	-44.437570	 15.208500	 5.323790	 0.000000	 0.000000	 0.000000	 0.000000	 0.000000	 0.000000	 0.000000
 0.002263	 1.271549	 0.064732	-0.084701	-0.760293	 179.983900	-177.036100	 2.024677	-10.291470	 2.235965	-10.434910	-0.053248	-5.190512	 69.925330	 4.566291	 1.292262	 28.425850	-2.713146	 176.889000	 2.933375	 10.279490	-2.462260	-11.802910	 0.011693	 5.416400	 70.498030	-4.767612	-1.288183	 28.361890	 2.710176	 0.037217	 1.946109	 5.068064	-1.302132	 3.692288	 2.675264	 1.129248	-4.763732	-7.670638	-101.478000	 1.740674	 90.353380	 2.211999	 62.500450	 0.438266	 7.797104	 4.401846	-7.651199	 15.088220	 2.243814	 16.087280	-6.580301	 5.266122	 0.000000	 0.000000	 0.000000	 0.000000	 0.000000	 0.000000	 0.000000	 0.089846	-3.783161	 0.005928	 0.017926	 1.087977	-1.887888	 101.796200	-0.213310	-89.955460	-64.597020	 25.424430	 54.635260	-66.814540	 49.827130	 41.961960	 38.906860	-58.103590	-27.621610	 15.208500	 5.323790	 0.000000	 0.000000	 0.000000	 0.000000	 0.000000	 0.000000	 0.000000
